<?xml version="1.0" standalone="no"?>
<!DOCTYPE svg PUBLIC "-//W3C//DTD SVG 20010904//EN"
 "http://www.w3.org/TR/2001/REC-SVG-20010904/DTD/svg10.dtd">
<svg version="1.0" xmlns="http://www.w3.org/2000/svg"
 width="264.000000pt" height="264.000000pt" viewBox="0 0 264.000000 264.000000"
 preserveAspectRatio="xMidYMid meet">
<metadata>
Created by potrace 1.14, written by Peter Selinger 2001-2017
</metadata>
<g transform="translate(0.000000,264.000000) scale(0.100000,-0.100000)"
fill="#000000" stroke="none">
<path d="M1115 2622 c-76 -26 -157 -86 -240 -175 -41 -44 -75 -84 -75 -89 0
-4 10 -8 22 -8 13 0 57 -7 100 -17 l78 -16 20 26 c19 24 23 25 36 12 9 -8 26
-15 39 -15 22 0 24 3 18 33 -3 17 -11 35 -17 39 -8 5 -7 11 2 20 10 10 15 8
28 -10 8 -12 24 -22 35 -22 28 0 24 -9 -30 -61 -58 -55 -77 -115 -60 -188 17
-76 49 -122 62 -88 3 6 10 -1 16 -17 6 -16 14 -26 18 -23 8 8 55 -62 48 -73
-2 -4 -25 -11 -49 -14 -63 -10 -106 -43 -137 -104 -17 -35 -46 -69 -84 -100
-32 -26 -73 -67 -90 -92 -18 -26 -48 -53 -71 -65 -23 -11 -72 -45 -110 -76
-177 -142 -233 -171 -283 -145 -45 24 -50 19 -14 -13 l32 -28 -39 -38 c-22
-22 -40 -45 -40 -52 0 -6 16 -17 36 -22 46 -13 81 4 121 55 15 19 60 54 98 76
39 23 102 59 140 82 39 22 99 67 135 99 36 32 93 75 128 94 35 20 80 53 99 74
20 22 40 39 46 39 16 0 46 -44 47 -68 0 -12 16 -61 35 -109 19 -48 35 -93 35
-100 0 -7 -14 -28 -31 -47 -19 -22 -29 -44 -28 -58 3 -24 -18 -65 -57 -108
-37 -42 -84 -141 -84 -176 0 -18 -6 -48 -14 -66 -18 -42 -42 -127 -56 -203
-17 -86 -59 -144 -106 -145 -33 0 -136 -46 -174 -77 -19 -16 -50 -40 -69 -53
l-34 -23 7 59 c4 32 10 80 13 107 7 61 -4 61 -63 -1 -52 -53 -94 -135 -94
-181 0 -28 3 -31 30 -31 17 0 30 3 30 8 0 4 13 15 28 26 18 13 14 6 -13 -22
-22 -23 -44 -41 -49 -42 -5 0 -18 -8 -28 -17 -10 -9 -38 -19 -61 -22 -35 -5
-43 -10 -45 -30 -2 -13 3 -40 11 -60 8 -20 18 -49 23 -66 5 -16 18 -34 29 -40
11 -6 33 -19 48 -29 36 -24 45 -14 18 20 -11 15 -21 38 -21 51 0 55 53 116
113 129 18 3 57 20 87 36 30 16 70 31 90 34 46 7 109 35 164 73 24 17 63 35
86 40 23 5 43 11 44 13 142 193 141 192 231 372 40 79 80 146 93 154 15 10 22
11 22 3 0 -6 -9 -15 -19 -19 -19 -7 -17 -13 27 -87 63 -108 127 -191 166 -214
18 -11 44 -34 60 -51 24 -28 26 -33 12 -43 -100 -75 -205 -194 -192 -216 3 -5
-1 -14 -9 -21 -20 -16 -19 -39 3 -65 9 -12 1 -5 -18 16 -49 51 -120 139 -120
149 0 4 -6 10 -13 13 -8 3 -14 -5 -16 -22 -5 -35 -4 -112 1 -131 12 -39 30
-74 55 -106 22 -26 30 -31 38 -21 6 7 23 20 38 30 28 18 28 19 11 38 -13 15
-19 17 -26 7 -4 -7 -8 -8 -8 -3 0 6 4 16 9 23 6 11 13 7 29 -13 24 -30 18 -56
-19 -75 -11 -6 -16 -16 -13 -22 4 -6 3 -8 -2 -5 -15 9 -28 -3 -73 -63 -43 -57
-49 -78 -29 -98 15 -15 54 -16 63 -2 3 6 29 10 56 10 33 0 65 8 94 24 l45 23
-54 -1 c-30 0 -66 6 -79 13 l-26 14 26 38 c14 22 29 39 33 39 3 0 20 19 37 43
17 23 46 58 65 77 18 19 62 70 98 113 36 43 85 101 108 129 49 57 51 78 19
168 -9 25 -28 86 -43 135 -14 50 -35 109 -45 132 -10 24 -19 45 -19 48 0 3
-21 41 -46 84 -37 64 -45 87 -42 118 1 21 10 43 18 50 11 8 15 32 16 85 0 40
8 102 17 137 10 35 15 71 12 80 -6 20 9 46 23 37 6 -3 13 -20 17 -36 4 -17 20
-43 35 -59 48 -48 150 -121 179 -127 33 -8 161 -92 162 -108 3 -24 -3 -41 -19
-52 -14 -10 -12 -13 12 -29 31 -21 46 -13 27 17 -9 14 -9 18 -1 13 7 -4 16 -2
20 5 4 7 21 13 36 13 30 -1 74 23 74 39 0 5 -12 19 -27 32 -25 22 -26 26 -14
52 11 25 10 30 -6 42 -12 10 -13 13 -3 10 8 -3 21 1 28 8 10 11 8 15 -8 24
-16 9 -20 8 -20 -5 0 -8 -4 -15 -10 -15 -5 0 -16 -13 -25 -30 -9 -16 -21 -30
-28 -30 -23 0 -126 74 -201 145 -41 39 -88 80 -105 93 -17 13 -31 28 -31 33 0
5 -9 28 -19 52 -10 23 -31 81 -45 128 -15 47 -36 96 -47 108 -23 25 -61 28
-79 6 -11 -13 -9 -20 10 -40 28 -30 15 -34 -15 -5 l-22 21 -24 -20 -24 -21 22
-6 c14 -4 20 -11 16 -22 -5 -13 -9 -12 -24 6 -9 12 -15 31 -12 42 4 14 0 20
-11 20 -10 0 -16 9 -16 25 0 14 -9 30 -20 37 -11 7 -20 20 -20 30 0 26 -19 32
-41 12 -19 -17 -28 -7 -9 12 8 8 6 15 -5 24 -14 12 -18 11 -25 0 -5 -8 -11
-12 -14 -9 -12 11 36 49 77 60 57 17 60 20 42 62 -8 20 -15 47 -15 60 0 31
-38 80 -56 73 -8 -3 -13 0 -11 6 4 23 -46 39 -111 35 l-63 -5 3 28 c1 15 -3
34 -10 42 -20 25 11 41 78 40 84 -1 135 -27 199 -100 47 -55 92 -84 107 -69 3
3 -8 20 -24 38 -16 19 -43 61 -60 94 -44 87 -96 131 -192 159 -68 20 -112 20
-175 -2z m181 -37 c28 -8 62 -28 79 -45 32 -33 25 -37 -28 -15 -86 36 -188 11
-266 -66 -39 -37 -53 -58 -31 -44 6 3 10 1 10 -5 0 -7 -8 -9 -19 -5 -13 4 -25
-2 -38 -21 -17 -23 -23 -25 -41 -15 -11 6 -34 11 -51 11 -18 0 -31 5 -31 12 0
22 142 149 200 178 64 34 137 39 216 15z m-118 -143 c2 -7 -6 -12 -17 -12 -21
0 -27 11 -14 24 9 9 26 2 31 -12z m-82 -53 c10 -17 -13 -36 -27 -22 -12 12 -4
33 11 33 5 0 12 -5 16 -11z m54 -273 c0 -3 -4 -8 -10 -11 -5 -3 -10 -1 -10 4
0 6 5 11 10 11 6 0 10 -2 10 -4z m50 -15 c0 -13 -29 -35 -37 -28 -7 8 15 37
28 37 5 0 9 -4 9 -9z m210 -76 c0 -8 -4 -15 -10 -15 -5 0 -10 7 -10 15 0 8 5
15 10 15 6 0 10 -7 10 -15z m31 -33 c-12 -22 -41 -48 -41 -36 0 8 40 54 47 54
2 0 -1 -8 -6 -18z m-131 -25 c0 -2 -15 -16 -32 -33 l-33 -29 29 33 c28 30 36
37 36 29z m63 -42 c-21 -29 -38 -33 -23 -6 8 16 20 25 38 30 2 1 -5 -10 -15
-24z m57 -5 c0 -5 -5 -10 -11 -10 -5 0 -7 5 -4 10 3 6 8 10 11 10 2 0 4 -4 4
-10z m162 -22 c13 -13 21 -30 20 -39 -2 -10 2 -20 8 -24 5 -3 10 -12 10 -18
-1 -7 -9 -1 -20 12 -11 12 -17 27 -14 33 3 5 -3 16 -15 24 -12 8 -21 19 -21
25 0 14 8 11 32 -13z m-44 -20 c-2 -6 -10 -14 -16 -16 -7 -2 -10 2 -6 12 7 18
28 22 22 4z m72 -126 c0 -4 -9 -13 -20 -20 -24 -15 -26 -9 -4 12 17 18 24 20
24 8z m-230 -47 c-7 -8 -18 -15 -24 -15 -6 0 -2 7 8 15 25 19 32 19 16 0z
m170 -408 c0 -2 -12 -14 -27 -28 -24 -22 -24 -13 0 19 8 11 27 17 27 9z m-80
-125 c0 -5 -15 -19 -32 -32 l-33 -23 29 31 c31 34 36 37 36 24z m-90 -47 c-7
-9 -15 -13 -17 -11 -7 7 7 26 19 26 6 0 6 -6 -2 -15z m-37 -30 c-3 -9 -8 -14
-10 -11 -3 3 -2 9 2 15 9 16 15 13 8 -4z m-344 -487 c-2 -2 -19 -16 -38 -33
-28 -25 -32 -26 -22 -8 12 24 52 56 60 48 2 -3 2 -6 0 -7z m-432 -160 c-3 -8
-6 -5 -6 6 -1 11 2 17 5 13 3 -3 4 -12 1 -19z m-17 -28 c-7 -4 -10 -12 -7 -17
3 -5 -3 -9 -13 -10 -16 -1 -17 2 -8 22 6 14 16 21 25 18 11 -4 12 -8 3 -13z
m910 -130 c0 -5 -5 -10 -11 -10 -5 0 -7 5 -4 10 3 6 8 10 11 10 2 0 4 -4 4
-10z"/>
<path d="M1482 1988 c7 -19 38 -22 38 -4 0 10 -9 16 -21 16 -12 0 -19 -5 -17
-12z"/>
<path d="M2120 1973 c0 -5 31 -39 70 -76 38 -38 79 -89 91 -114 44 -90 24
-170 -49 -199 -77 -30 -86 -44 -47 -70 24 -16 28 -16 71 1 35 13 53 29 76 64
26 41 29 52 24 102 -6 63 -37 125 -98 194 -59 67 -138 123 -138 98z"/>
</g>
</svg>
